<svg width="36" height="36" viewBox="0 0 36 36" fill="none" xmlns="http://www.w3.org/2000/svg">
<path d="M31.4109 6.53612V29.4639H4.6277V31.251C4.6277 32.2395 3.81725 33 2.81385 33C2.31215 33 1.88763 32.8099 1.5403 32.4677C1.23156 32.1635 1 31.7072 1 31.2129V3H12.3462L15.9353 6.53612H31.4109Z" fill="black"/>
<path d="M33.1861 33H2.81384C3.81725 33 4.62769 32.2015 4.62769 31.2129V10.0723H35V31.251C35 32.2396 34.1896 33 33.1861 33Z" fill="#9FBFF8"/>
<path d="M19.7945 29.8821C24.4836 29.8821 28.2849 26.137 28.2849 21.5171C28.2849 16.8972 24.4836 13.1521 19.7945 13.1521C15.1055 13.1521 11.3042 16.8972 11.3042 21.5171C11.3042 26.137 15.1055 29.8821 19.7945 29.8821Z" fill="white"/>
<path d="M22.2645 21.099L19.7945 24.1408L17.3632 21.099H18.9841V16.4602H20.6436V21.099H22.2645Z" fill="#276EF1"/>
<path d="M23.6721 26.5166V24.9197H15.9536V26.5166H23.6721Z" fill="#276EF1"/>
</svg>
