<svg width="36" height="36" viewBox="0 0 36 36" fill="none" xmlns="http://www.w3.org/2000/svg">
<path d="M18 1L4 8.88955V18.3284C4 24.3943 7.50196 29.927 13.0314 32.5968L18 35L22.9686 32.6007C28.4941 29.9309 32 24.3943 32 18.3284V8.88955L18 1Z" fill="#276EF1"/>
<path d="M28.898 10.8677V18.3245C28.898 23.1889 26.0392 27.7132 21.6078 29.8536L18.0039 31.5961L14.4 29.8536C9.92941 27.6977 7.10196 23.2275 7.10196 18.3323V10.8677L18 4.73999L28.898 10.8677Z" fill="black"/>
<path d="M14.4471 25.4452H21.4431V26.7241C20.8196 26.7241 20.3176 27.2225 20.3176 27.8329H15.5765C15.5765 27.2186 15.0706 26.7241 14.451 26.7241V25.4452H14.4471Z" fill="#9FBFF8"/>
<path d="M17.2275 23.2353V21.9989C16.7765 21.9178 16.3647 21.7864 15.9882 21.601C15.6118 21.4155 15.2863 21.1875 15.0078 20.9171C14.7333 20.6466 14.5098 20.3337 14.3412 19.9821C14.1725 19.6305 14.0745 19.248 14.0431 18.8385H16.0157C16.1059 19.561 16.5098 20.0439 17.2235 20.2835V17.7837L16.7804 17.6639C15.8627 17.4321 15.1804 17.0844 14.7294 16.6169C14.2784 16.1494 14.0549 15.5389 14.0549 14.7855C14.0549 14.3837 14.1333 14.0166 14.2902 13.6766C14.4471 13.3405 14.6706 13.0469 14.9569 12.7957C15.2431 12.5446 15.5804 12.3398 15.9686 12.1853C16.3569 12.0307 16.7725 11.9303 17.2235 11.8916V10.7325H18.6627V11.9689C19.5098 12.1389 20.2039 12.4944 20.7529 13.0391C21.298 13.58 21.6275 14.2562 21.7412 15.0598H19.7529C19.6118 14.4185 19.2471 13.9703 18.6667 13.7191V16.1764L19.1725 16.2962C20.1294 16.5357 20.8275 16.8873 21.2627 17.351C21.698 17.8146 21.9137 18.4212 21.9137 19.1746C21.9137 19.5571 21.8431 19.9125 21.698 20.2448C21.5529 20.5771 21.3451 20.8707 21.0706 21.1335C20.7961 21.3962 20.4549 21.6087 20.051 21.7748C19.6471 21.941 19.1882 22.0453 18.6667 22.0839V23.243H17.2275V23.2353ZM16.0471 14.7082C16.0471 15.0212 16.1529 15.2723 16.3686 15.4694C16.5843 15.6664 16.8667 15.8016 17.2275 15.8828V13.5607C16.8706 13.6225 16.5843 13.7462 16.3686 13.9394C16.1569 14.1287 16.0471 14.3837 16.0471 14.7082ZM18.6667 20.4032C19.0941 20.353 19.4157 20.2294 19.6235 20.0246C19.8314 19.8237 19.9373 19.5764 19.9373 19.2866C19.9373 18.9969 19.8235 18.7419 19.5922 18.5255C19.3608 18.3091 19.0549 18.1546 18.6667 18.0657V20.4032Z" fill="white"/>
</svg>
