<svg width="36" height="36" viewBox="0 0 36 36" fill="none" xmlns="http://www.w3.org/2000/svg">
<path d="M36 13.9737L30.7227 14.0144L29.1272 9.01196L27.5318 14.0144L22.2545 13.9737L26.5091 17.0239L24.8727 21.9856L29.1272 18.8947L33.3818 21.9856L31.7454 17.0239L36 13.9737Z" fill="#276EF1"/>
<path d="M13.7454 13.9737L8.46818 14.0144L6.87272 9.01196L5.27727 14.0144L0 13.9737L4.25455 17.0239L2.61818 21.9856L6.87272 18.8947L11.1273 21.9856L9.4909 17.0239L13.7454 13.9737Z" fill="#276EF1"/>
<path d="M24.8727 5.96172L19.5954 6.00239L18 1L16.4045 6.00239L11.1273 5.96172L15.3818 9.01196L13.7454 13.9737L18 10.8828L22.2545 13.9737L20.6182 9.01196L24.8727 5.96172Z" fill="#9FBFF8"/>
<path d="M18 26.9881L12.7227 27.0288L11.1272 22.0264L9.53179 27.0288L4.25452 26.9881L8.50906 30.0383L6.87269 35L11.1272 31.9091L15.3818 35L13.7454 30.0383L18 26.9881Z" fill="black"/>
<path d="M31.7454 26.9881L26.4682 27.0288L24.8727 22.0264L23.2773 27.0288L18 26.9881L22.2545 30.0383L20.6182 35L24.8727 31.9091L29.1273 35L27.4909 30.0383L31.7454 26.9881Z" fill="black"/>
<path d="M18 19.5455C19.2426 19.5455 20.25 18.544 20.25 17.3086C20.25 16.0732 19.2426 15.0718 18 15.0718C16.7574 15.0718 15.75 16.0732 15.75 17.3086C15.75 18.544 16.7574 19.5455 18 19.5455Z" fill="#276EF1"/>
<path d="M21.6818 24.1006H14.3182V22.7992C14.3182 21.4977 15.3818 20.3997 16.7318 20.3997H19.3091C20.6182 20.3997 21.7227 21.4571 21.7227 22.7992V24.1006H21.6818Z" fill="#276EF1"/>
</svg>
